M48
; DRILL file {KiCad 9.0.2-2.fc42} date 2025-06-06T11:44:02+0800
; FORMAT={-:-/ absolute / metric / decimal}
; #@! TF.CreationDate,2025-06-06T11:44:02+08:00
; #@! TF.GenerationSoftware,Kicad,Pcbnew,9.0.2-2.fc42
; #@! TF.FileFunction,Plated,1,2,PTH
FMAT,2
METRIC
; #@! TA.AperFunction,Plated,PTH,ViaDrill
T1C0.300
; #@! TA.AperFunction,Plated,PTH,ComponentDrill
T2C0.800
; #@! TA.AperFunction,Plated,PTH,ComponentDrill
T3C0.950
; #@! TA.AperFunction,Plated,PTH,ComponentDrill
T4C1.000
; #@! TA.AperFunction,Plated,PTH,ComponentDrill
T5C2.300
; #@! TA.AperFunction,Plated,PTH,ComponentDrill
T6C3.200
; #@! TA.AperFunction,Plated,PTH,ComponentDrill
T7C4.400
%
G90
G05
T1
X75.0Y-63.5
X76.425Y-68.5
X82.5Y-78.5
X82.5Y-79.77
X82.5Y-81.04
X82.5Y-82.31
X82.5Y-83.58
X82.5Y-84.85
X83.5Y-76.0
X83.525Y-60.0
X84.0Y-48.0
X85.0Y-86.0
X86.45Y-74.5
X86.475Y-60.0
X87.45Y-86.12
X87.5Y-66.5
X87.5Y-68.0
X87.5Y-69.0
X87.5Y-81.0
X87.5Y-83.5
X88.0Y-82.5
X88.15Y-72.5
X88.5Y-73.5
X88.85Y-66.0
X89.0Y-69.5
X89.331Y-71.331
X89.5Y-57.5
X89.5Y-66.5
X89.85Y-79.278
X90.0Y-55.0
X90.0Y-56.0
X90.0Y-69.5
X90.5Y-72.0
X91.0Y-57.5
X91.15Y-78.0
X92.5Y-65.5
X92.5Y-66.5
X93.0Y-51.0
X93.0Y-52.0
X93.0Y-77.0
X93.0Y-87.5
X93.21Y-53.71
X94.0Y-57.0
X94.0Y-77.0
X94.0Y-79.5
X94.5Y-59.5
X94.5Y-75.35
X94.5Y-78.5
X95.0Y-88.5
X95.5Y-74.656
X96.0Y-58.5
X96.025Y-86.12
X97.0Y-74.656
X97.025Y-60.0
X97.341Y-80.35
X97.79Y-57.71
X97.85Y-75.692
X98.0Y-47.5
X98.0Y-55.5
X98.0Y-64.0
X99.0Y-47.5
X99.0Y-57.0
X99.0Y-63.0
X99.0Y-65.5
X100.5Y-87.0
X100.95Y-65.27
X100.95Y-66.54
X100.95Y-67.81
X100.95Y-69.08
X100.975Y-81.04
X100.975Y-82.31
X100.975Y-83.58
X101.0Y-58.0
X101.0Y-59.0
X102.5Y-55.5
X103.0Y-53.0
X103.0Y-84.0
X103.5Y-69.848
X104.5Y-52.0
X104.5Y-65.0
X106.0Y-68.5
X106.0Y-69.5
X106.15Y-67.5
X110.5Y-36.5
X112.5Y-43.5
X113.0Y-48.5
X115.65Y-84.0
X116.45Y-84.0
X117.5Y-34.7
X119.54Y-92.062
X120.577Y-74.842
X121.0Y-45.5
X122.04Y-92.062
X124.0Y-37.0
X124.0Y-70.35
X124.54Y-94.575
X124.71Y-76.29
X125.0Y-37.0
X125.0Y-72.31
X125.0Y-79.93
X125.5Y-53.0
X125.5Y-75.65
X125.79Y-79.71
X126.5Y-44.0
X126.5Y-63.0
X126.5Y-73.61
X126.5Y-78.5
X127.0Y-74.35
X127.5Y-70.5
X128.25Y-69.75
X128.5Y-71.5
X128.516Y-72.312
X129.515Y-77.003
X130.0Y-66.5
X130.35Y-64.5
X130.365Y-79.715
X130.5Y-69.65
X130.5Y-70.45
X130.5Y-76.5
X130.5Y-77.5
X130.65Y-74.231
X131.5Y-58.0
X131.514Y-96.438
X132.0Y-70.651
X132.014Y-79.925
X132.04Y-94.575
X132.5Y-64.5
X132.5Y-79.0
X132.5Y-95.85
X132.934Y-74.934
X133.0Y-68.35
X133.29Y-93.848
X133.5Y-71.5
X133.5Y-75.5
X133.669Y-77.169
X133.875Y-38.0
X134.36Y-75.56
X134.478Y-72.826
X134.5Y-76.5
X134.5Y-77.5
X134.54Y-92.125
X135.278Y-72.803
X135.5Y-83.5
X136.5Y-67.5
X136.675Y-75.8
X137.0Y-53.5
X137.0Y-81.5
X137.0Y-84.35
X137.04Y-92.062
X137.575Y-69.5
X138.0Y-46.0
X138.823Y-78.677
X139.0Y-52.0
X139.0Y-79.5
X139.0Y-80.3
X139.5Y-41.5
X139.5Y-84.85
X139.54Y-92.062
X140.0Y-72.5
X140.0Y-76.5
X140.562Y-74.975
X141.5Y-72.5
X142.0Y-85.35
X142.04Y-92.062
X144.5Y-85.85
X144.54Y-92.062
X146.5Y-62.037
X147.0Y-46.0
X147.0Y-87.0
X147.04Y-92.062
X147.5Y-68.062
X148.05Y-48.637
X149.0Y-46.5
X149.0Y-49.0
X149.0Y-62.037
X149.54Y-92.062
X150.5Y-55.0
X151.39Y-93.475
X151.5Y-55.0
X151.5Y-95.85
X152.04Y-94.537
X153.0Y-51.0
X153.264Y-93.567
X154.54Y-92.062
X154.975Y-96.4
X157.15Y-96.5
X157.35Y-50.65
T2
X107.84Y-58.19
X107.84Y-65.81
X110.38Y-58.19
X110.38Y-65.81
X112.92Y-58.19
X112.92Y-65.81
X115.46Y-58.19
X115.46Y-65.81
X118.0Y-58.19
X118.0Y-65.81
X120.54Y-58.19
X120.54Y-65.81
X123.08Y-58.19
X123.08Y-65.81
X125.62Y-58.19
X125.62Y-65.81
X128.16Y-58.19
X128.16Y-65.81
X133.795Y-48.0
X136.295Y-48.0
X162.5Y-43.5
X162.5Y-46.0
X162.5Y-62.205
X162.5Y-64.705
T3
X147.25Y-39.86
X147.25Y-41.86
X149.75Y-39.86
X149.75Y-41.86
T4
X69.5Y-48.26
X69.5Y-50.8
X69.5Y-53.34
X69.5Y-55.88
X69.5Y-58.42
X69.5Y-60.96
X69.5Y-63.5
X69.5Y-66.04
X69.5Y-68.58
X69.5Y-71.12
X87.395Y-40.98
X88.78Y-38.14
X90.165Y-40.98
X91.55Y-38.14
X92.935Y-40.98
X94.32Y-38.14
X95.705Y-40.98
X97.09Y-38.14
X98.475Y-40.98
X99.86Y-38.14
X101.245Y-40.98
X102.63Y-38.14
X104.015Y-40.98
X105.4Y-38.14
X106.785Y-40.98
X107.2Y-76.5
X108.17Y-38.14
X109.555Y-40.98
X110.94Y-38.14
X112.325Y-40.98
X113.71Y-38.14
X114.8Y-76.5
X115.095Y-40.98
X116.48Y-38.14
X116.48Y-101.0
X117.865Y-40.98
X119.02Y-101.0
X119.25Y-38.14
X120.635Y-40.98
X121.56Y-101.0
X123.0Y-72.96
X123.0Y-75.5
X123.0Y-78.04
X123.0Y-80.58
X124.1Y-101.0
X126.64Y-101.0
X129.18Y-101.0
X131.72Y-101.0
X134.26Y-101.0
X136.8Y-101.0
X139.34Y-101.0
X141.88Y-101.0
X144.42Y-101.0
X146.96Y-101.0
X149.5Y-101.0
X152.04Y-101.0
X154.58Y-101.0
X164.0Y-51.225
X164.0Y-53.765
X164.0Y-70.5
X164.0Y-73.04
T5
X142.5Y-37.0
X154.5Y-37.0
T6
X80.465Y-38.14
X127.565Y-38.14
T7
X70.5Y-37.0
X70.5Y-99.0
X162.5Y-37.0
X162.5Y-99.0
M30
