%TF.GenerationSoftware,KiCad,Pcbnew,9.0.2-2.fc42*%
%TF.CreationDate,2025-06-06T11:43:54+08:00*%
%TF.ProjectId,wired_console_k9ay,77697265-645f-4636-9f6e-736f6c655f6b,rev?*%
%TF.SameCoordinates,Original*%
%TF.FileFunction,Paste,Top*%
%TF.FilePolarity,Positive*%
%FSLAX46Y46*%
G04 Gerber Fmt 4.6, Leading zero omitted, Abs format (unit mm)*
G04 Created by KiCad (PCBNEW 9.0.2-2.fc42) date 2025-06-06 11:43:54*
%MOMM*%
%LPD*%
G01*
G04 APERTURE LIST*
G04 Aperture macros list*
%AMRoundRect*
0 Rectangle with rounded corners*
0 $1 Rounding radius*
0 $2 $3 $4 $5 $6 $7 $8 $9 X,Y pos of 4 corners*
0 Add a 4 corners polygon primitive as box body*
4,1,4,$2,$3,$4,$5,$6,$7,$8,$9,$2,$3,0*
0 Add four circle primitives for the rounded corners*
1,1,$1+$1,$2,$3*
1,1,$1+$1,$4,$5*
1,1,$1+$1,$6,$7*
1,1,$1+$1,$8,$9*
0 Add four rect primitives between the rounded corners*
20,1,$1+$1,$2,$3,$4,$5,0*
20,1,$1+$1,$4,$5,$6,$7,0*
20,1,$1+$1,$6,$7,$8,$9,0*
20,1,$1+$1,$8,$9,$2,$3,0*%
G04 Aperture macros list end*
%ADD10RoundRect,0.250000X0.625000X-0.312500X0.625000X0.312500X-0.625000X0.312500X-0.625000X-0.312500X0*%
%ADD11RoundRect,0.250000X-0.412500X-0.650000X0.412500X-0.650000X0.412500X0.650000X-0.412500X0.650000X0*%
%ADD12RoundRect,0.250000X0.650000X-0.412500X0.650000X0.412500X-0.650000X0.412500X-0.650000X-0.412500X0*%
%ADD13RoundRect,0.150000X-0.150000X0.512500X-0.150000X-0.512500X0.150000X-0.512500X0.150000X0.512500X0*%
%ADD14RoundRect,0.150000X-0.825000X-0.150000X0.825000X-0.150000X0.825000X0.150000X-0.825000X0.150000X0*%
%ADD15RoundRect,0.150000X-0.150000X0.825000X-0.150000X-0.825000X0.150000X-0.825000X0.150000X0.825000X0*%
%ADD16RoundRect,0.150000X0.150000X-0.512500X0.150000X0.512500X-0.150000X0.512500X-0.150000X-0.512500X0*%
%ADD17RoundRect,0.125000X0.625000X0.125000X-0.625000X0.125000X-0.625000X-0.125000X0.625000X-0.125000X0*%
%ADD18RoundRect,0.125000X0.125000X0.625000X-0.125000X0.625000X-0.125000X-0.625000X0.125000X-0.625000X0*%
%ADD19RoundRect,0.250000X0.312500X0.625000X-0.312500X0.625000X-0.312500X-0.625000X0.312500X-0.625000X0*%
%ADD20RoundRect,0.250000X-0.312500X-0.625000X0.312500X-0.625000X0.312500X0.625000X-0.312500X0.625000X0*%
%ADD21RoundRect,0.250000X-0.625000X0.312500X-0.625000X-0.312500X0.625000X-0.312500X0.625000X0.312500X0*%
%ADD22RoundRect,0.150000X0.150000X-0.587500X0.150000X0.587500X-0.150000X0.587500X-0.150000X-0.587500X0*%
%ADD23RoundRect,0.250000X0.275000X0.700000X-0.275000X0.700000X-0.275000X-0.700000X0.275000X-0.700000X0*%
%ADD24RoundRect,0.250000X-0.275000X-0.700000X0.275000X-0.700000X0.275000X0.700000X-0.275000X0.700000X0*%
%ADD25RoundRect,0.250000X-0.400000X-0.600000X0.400000X-0.600000X0.400000X0.600000X-0.400000X0.600000X0*%
%ADD26RoundRect,0.250000X-0.625000X0.375000X-0.625000X-0.375000X0.625000X-0.375000X0.625000X0.375000X0*%
%ADD27RoundRect,0.250000X0.400000X0.600000X-0.400000X0.600000X-0.400000X-0.600000X0.400000X-0.600000X0*%
%ADD28RoundRect,0.225000X0.375000X-0.225000X0.375000X0.225000X-0.375000X0.225000X-0.375000X-0.225000X0*%
%ADD29RoundRect,0.250000X0.412500X0.650000X-0.412500X0.650000X-0.412500X-0.650000X0.412500X-0.650000X0*%
%ADD30RoundRect,0.250000X-0.325000X-0.650000X0.325000X-0.650000X0.325000X0.650000X-0.325000X0.650000X0*%
%ADD31RoundRect,0.250000X0.650000X-0.325000X0.650000X0.325000X-0.650000X0.325000X-0.650000X-0.325000X0*%
%ADD32RoundRect,0.250000X-0.650000X0.325000X-0.650000X-0.325000X0.650000X-0.325000X0.650000X0.325000X0*%
G04 APERTURE END LIST*
D10*
%TO.C,R17*%
X153000000Y-46037500D03*
X153000000Y-48962500D03*
%TD*%
D11*
%TO.C,C37*%
X134562500Y-67000000D03*
X131437500Y-67000000D03*
%TD*%
D12*
%TO.C,C16*%
X140500000Y-75037500D03*
X140500000Y-78162500D03*
%TD*%
D13*
%TO.C,U12*%
X133950000Y-53500000D03*
X133000000Y-53500000D03*
X132050000Y-53500000D03*
X132050000Y-55775000D03*
X133950000Y-55775000D03*
%TD*%
D14*
%TO.C,U11*%
X82500000Y-62730000D03*
X82500000Y-64000000D03*
X82500000Y-65270000D03*
X82500000Y-66540000D03*
X82500000Y-67810000D03*
X82500000Y-69080000D03*
X82500000Y-70350000D03*
X82500000Y-71620000D03*
X87450000Y-71620000D03*
X87450000Y-70350000D03*
X87450000Y-69080000D03*
X87450000Y-67810000D03*
X87450000Y-66540000D03*
X87450000Y-65270000D03*
X87450000Y-64000000D03*
X87450000Y-62730000D03*
%TD*%
%TO.C,U9*%
X96025000Y-48055000D03*
X96025000Y-49325000D03*
X96025000Y-50595000D03*
X96025000Y-51865000D03*
X96025000Y-53135000D03*
X96025000Y-54405000D03*
X96025000Y-55675000D03*
X96025000Y-56945000D03*
X100975000Y-56945000D03*
X100975000Y-55675000D03*
X100975000Y-54405000D03*
X100975000Y-53135000D03*
X100975000Y-51865000D03*
X100975000Y-50595000D03*
X100975000Y-49325000D03*
X100975000Y-48055000D03*
%TD*%
%TO.C,U8*%
X82550000Y-48055000D03*
X82550000Y-49325000D03*
X82550000Y-50595000D03*
X82550000Y-51865000D03*
X82550000Y-53135000D03*
X82550000Y-54405000D03*
X82550000Y-55675000D03*
X82550000Y-56945000D03*
X87500000Y-56945000D03*
X87500000Y-55675000D03*
X87500000Y-54405000D03*
X87500000Y-53135000D03*
X87500000Y-51865000D03*
X87500000Y-50595000D03*
X87500000Y-49325000D03*
X87500000Y-48055000D03*
%TD*%
%TO.C,U7*%
X82500000Y-77230000D03*
X82500000Y-78500000D03*
X82500000Y-79770000D03*
X82500000Y-81040000D03*
X82500000Y-82310000D03*
X82500000Y-83580000D03*
X82500000Y-84850000D03*
X82500000Y-86120000D03*
X87450000Y-86120000D03*
X87450000Y-84850000D03*
X87450000Y-83580000D03*
X87450000Y-82310000D03*
X87450000Y-81040000D03*
X87450000Y-79770000D03*
X87450000Y-78500000D03*
X87450000Y-77230000D03*
%TD*%
%TO.C,U6*%
X96025000Y-77230000D03*
X96025000Y-78500000D03*
X96025000Y-79770000D03*
X96025000Y-81040000D03*
X96025000Y-82310000D03*
X96025000Y-83580000D03*
X96025000Y-84850000D03*
X96025000Y-86120000D03*
X100975000Y-86120000D03*
X100975000Y-84850000D03*
X100975000Y-83580000D03*
X100975000Y-82310000D03*
X100975000Y-81040000D03*
X100975000Y-79770000D03*
X100975000Y-78500000D03*
X100975000Y-77230000D03*
%TD*%
%TO.C,U5*%
X96000000Y-62730000D03*
X96000000Y-64000000D03*
X96000000Y-65270000D03*
X96000000Y-66540000D03*
X96000000Y-67810000D03*
X96000000Y-69080000D03*
X96000000Y-70350000D03*
X96000000Y-71620000D03*
X100950000Y-71620000D03*
X100950000Y-70350000D03*
X100950000Y-69080000D03*
X100950000Y-67810000D03*
X100950000Y-66540000D03*
X100950000Y-65270000D03*
X100950000Y-64000000D03*
X100950000Y-62730000D03*
%TD*%
D13*
%TO.C,U4*%
X140012500Y-53312500D03*
X139062500Y-53312500D03*
X138112500Y-53312500D03*
X138112500Y-55587500D03*
X140012500Y-55587500D03*
%TD*%
D15*
%TO.C,U3*%
X153000000Y-53525000D03*
X151730000Y-53525000D03*
X150460000Y-53525000D03*
X149190000Y-53525000D03*
X147920000Y-53525000D03*
X146650000Y-53525000D03*
X145380000Y-53525000D03*
X144110000Y-53525000D03*
X144110000Y-58475000D03*
X145380000Y-58475000D03*
X146650000Y-58475000D03*
X147920000Y-58475000D03*
X149190000Y-58475000D03*
X150460000Y-58475000D03*
X151730000Y-58475000D03*
X153000000Y-58475000D03*
%TD*%
D16*
%TO.C,U2*%
X148050000Y-48637500D03*
X149000000Y-48637500D03*
X149950000Y-48637500D03*
X149950000Y-46362500D03*
X149000000Y-46362500D03*
X148050000Y-46362500D03*
%TD*%
D17*
%TO.C,U1*%
X136675000Y-79800000D03*
X136675000Y-79000000D03*
X136675000Y-78200000D03*
X136675000Y-77400000D03*
X136675000Y-76600000D03*
X136675000Y-75800000D03*
X136675000Y-75000000D03*
X136675000Y-74200000D03*
D18*
X135300000Y-72825000D03*
X134500000Y-72825000D03*
X133700000Y-72825000D03*
X132900000Y-72825000D03*
X132100000Y-72825000D03*
X131300000Y-72825000D03*
X130500000Y-72825000D03*
X129700000Y-72825000D03*
D17*
X128325000Y-74200000D03*
X128325000Y-75000000D03*
X128325000Y-75800000D03*
X128325000Y-76600000D03*
X128325000Y-77400000D03*
X128325000Y-78200000D03*
X128325000Y-79000000D03*
X128325000Y-79800000D03*
D18*
X129700000Y-81175000D03*
X130500000Y-81175000D03*
X131300000Y-81175000D03*
X132100000Y-81175000D03*
X132900000Y-81175000D03*
X133700000Y-81175000D03*
X134500000Y-81175000D03*
X135300000Y-81175000D03*
%TD*%
D19*
%TO.C,R36*%
X140500000Y-67000000D03*
X137575000Y-67000000D03*
%TD*%
D20*
%TO.C,R35*%
X137575000Y-69500000D03*
X140500000Y-69500000D03*
%TD*%
%TO.C,R34*%
X152537500Y-76500000D03*
X155462500Y-76500000D03*
%TD*%
%TO.C,R33*%
X152537500Y-70500000D03*
X155462500Y-70500000D03*
%TD*%
D10*
%TO.C,R32*%
X128500000Y-53962500D03*
X128500000Y-51037500D03*
%TD*%
%TO.C,R31*%
X126000000Y-54000000D03*
X126000000Y-51075000D03*
%TD*%
D20*
%TO.C,R30*%
X73500000Y-68500000D03*
X76425000Y-68500000D03*
%TD*%
%TO.C,R29*%
X73500000Y-66000000D03*
X76425000Y-66000000D03*
%TD*%
%TO.C,R28*%
X73500000Y-63500000D03*
X76425000Y-63500000D03*
%TD*%
%TO.C,R27*%
X73500000Y-61000000D03*
X76425000Y-61000000D03*
%TD*%
%TO.C,R26*%
X73537500Y-58500000D03*
X76462500Y-58500000D03*
%TD*%
%TO.C,R25*%
X73500000Y-56000000D03*
X76425000Y-56000000D03*
%TD*%
%TO.C,R24*%
X73500000Y-53500000D03*
X76425000Y-53500000D03*
%TD*%
%TO.C,R23*%
X73537500Y-51000000D03*
X76462500Y-51000000D03*
%TD*%
%TO.C,R22*%
X73537500Y-48500000D03*
X76462500Y-48500000D03*
%TD*%
D21*
%TO.C,R21*%
X164000000Y-84937500D03*
X164000000Y-87862500D03*
%TD*%
D10*
%TO.C,R20*%
X146500000Y-64962500D03*
X146500000Y-62037500D03*
%TD*%
%TO.C,R19*%
X149000000Y-64962500D03*
X149000000Y-62037500D03*
%TD*%
%TO.C,R18*%
X145000000Y-49000000D03*
X145000000Y-46075000D03*
%TD*%
D21*
%TO.C,R16*%
X145500000Y-75075000D03*
X145500000Y-78000000D03*
%TD*%
%TO.C,R15*%
X119540000Y-94537500D03*
X119540000Y-97462500D03*
%TD*%
%TO.C,R14*%
X122040000Y-94537500D03*
X122040000Y-97462500D03*
%TD*%
%TO.C,R13*%
X124540000Y-94575000D03*
X124540000Y-97500000D03*
%TD*%
%TO.C,R12*%
X127040000Y-94537500D03*
X127040000Y-97462500D03*
%TD*%
%TO.C,R11*%
X129540000Y-94537500D03*
X129540000Y-97462500D03*
%TD*%
%TO.C,R10*%
X132040000Y-94575000D03*
X132040000Y-97500000D03*
%TD*%
%TO.C,R9*%
X134540000Y-94575000D03*
X134540000Y-97500000D03*
%TD*%
%TO.C,R8*%
X137040000Y-94575000D03*
X137040000Y-97500000D03*
%TD*%
%TO.C,R7*%
X139540000Y-94575000D03*
X139540000Y-97500000D03*
%TD*%
%TO.C,R6*%
X142040000Y-94575000D03*
X142040000Y-97500000D03*
%TD*%
%TO.C,R5*%
X144540000Y-94575000D03*
X144540000Y-97500000D03*
%TD*%
%TO.C,R4*%
X147040000Y-94537500D03*
X147040000Y-97462500D03*
%TD*%
%TO.C,R3*%
X149540000Y-94575000D03*
X149540000Y-97500000D03*
%TD*%
%TO.C,R2*%
X152040000Y-94537500D03*
X152040000Y-97462500D03*
%TD*%
%TO.C,R1*%
X154540000Y-94537500D03*
X154540000Y-97462500D03*
%TD*%
D22*
%TO.C,Q2*%
X146550000Y-69937500D03*
X148450000Y-69937500D03*
X147500000Y-68062500D03*
%TD*%
%TO.C,Q1*%
X126550000Y-47437500D03*
X128450000Y-47437500D03*
X127500000Y-45562500D03*
%TD*%
D23*
%TO.C,L2*%
X134525000Y-64500000D03*
X131375000Y-64500000D03*
%TD*%
D24*
%TO.C,L1*%
X137350000Y-64500000D03*
X140500000Y-64500000D03*
%TD*%
D10*
%TO.C,F8*%
X123000000Y-53962500D03*
X123000000Y-51037500D03*
%TD*%
%TO.C,F7*%
X120500000Y-53962500D03*
X120500000Y-51037500D03*
%TD*%
%TO.C,F6*%
X118000000Y-53962500D03*
X118000000Y-51037500D03*
%TD*%
%TO.C,F5*%
X115500000Y-54000000D03*
X115500000Y-51075000D03*
%TD*%
%TO.C,F4*%
X113000000Y-53962500D03*
X113000000Y-51037500D03*
%TD*%
%TO.C,F3*%
X110500000Y-53962500D03*
X110500000Y-51037500D03*
%TD*%
%TO.C,F2*%
X108000000Y-54000000D03*
X108000000Y-51075000D03*
%TD*%
%TO.C,F1*%
X105500000Y-54000000D03*
X105500000Y-51075000D03*
%TD*%
D25*
%TO.C,D5*%
X120750000Y-47000000D03*
X124250000Y-47000000D03*
%TD*%
D26*
%TO.C,D4*%
X164000000Y-80100000D03*
X164000000Y-82900000D03*
%TD*%
D27*
%TO.C,D3*%
X155750000Y-73500000D03*
X152250000Y-73500000D03*
%TD*%
D28*
%TO.C,D2*%
X142000000Y-49187500D03*
X142000000Y-45887500D03*
%TD*%
%TO.C,D1*%
X156000000Y-49300000D03*
X156000000Y-46000000D03*
%TD*%
D29*
%TO.C,C35*%
X134575000Y-62000000D03*
X131450000Y-62000000D03*
%TD*%
%TO.C,C34*%
X134575000Y-59500000D03*
X131450000Y-59500000D03*
%TD*%
D11*
%TO.C,C33*%
X133937500Y-35500000D03*
X137062500Y-35500000D03*
%TD*%
%TO.C,C32*%
X133875000Y-38000000D03*
X137000000Y-38000000D03*
%TD*%
D30*
%TO.C,C31*%
X83525000Y-60000000D03*
X86475000Y-60000000D03*
%TD*%
%TO.C,C30*%
X83500000Y-74500000D03*
X86450000Y-74500000D03*
%TD*%
%TO.C,C29*%
X97000000Y-74500000D03*
X99950000Y-74500000D03*
%TD*%
%TO.C,C28*%
X97025000Y-60000000D03*
X99975000Y-60000000D03*
%TD*%
D29*
%TO.C,C26*%
X140487500Y-62000000D03*
X137362500Y-62000000D03*
%TD*%
%TO.C,C25*%
X140487500Y-59500000D03*
X137362500Y-59500000D03*
%TD*%
D31*
%TO.C,C24*%
X156000000Y-57475000D03*
X156000000Y-54525000D03*
%TD*%
D11*
%TO.C,C23*%
X133875000Y-40500000D03*
X137000000Y-40500000D03*
%TD*%
%TO.C,C22*%
X133875000Y-43000000D03*
X137000000Y-43000000D03*
%TD*%
D32*
%TO.C,C21*%
X164500000Y-56525000D03*
X164500000Y-59475000D03*
%TD*%
%TO.C,C20*%
X162000000Y-56525000D03*
X162000000Y-59475000D03*
%TD*%
%TO.C,C19*%
X159500000Y-56525000D03*
X159500000Y-59475000D03*
%TD*%
D12*
%TO.C,C17*%
X143000000Y-78100000D03*
X143000000Y-74975000D03*
%TD*%
%TO.C,C15*%
X154540000Y-92062500D03*
X154540000Y-88937500D03*
%TD*%
%TO.C,C14*%
X152040000Y-92062500D03*
X152040000Y-88937500D03*
%TD*%
%TO.C,C13*%
X149540000Y-92062500D03*
X149540000Y-88937500D03*
%TD*%
%TO.C,C12*%
X147040000Y-92062500D03*
X147040000Y-88937500D03*
%TD*%
%TO.C,C11*%
X144540000Y-92062500D03*
X144540000Y-88937500D03*
%TD*%
%TO.C,C10*%
X142040000Y-92062500D03*
X142040000Y-88937500D03*
%TD*%
%TO.C,C9*%
X139540000Y-92062500D03*
X139540000Y-88937500D03*
%TD*%
%TO.C,C8*%
X137040000Y-92062500D03*
X137040000Y-88937500D03*
%TD*%
%TO.C,C7*%
X134540000Y-92125000D03*
X134540000Y-89000000D03*
%TD*%
%TO.C,C6*%
X132040000Y-92062500D03*
X132040000Y-88937500D03*
%TD*%
%TO.C,C5*%
X129540000Y-92062500D03*
X129540000Y-88937500D03*
%TD*%
%TO.C,C4*%
X127040000Y-92125000D03*
X127040000Y-89000000D03*
%TD*%
%TO.C,C3*%
X124540000Y-92125000D03*
X124540000Y-89000000D03*
%TD*%
%TO.C,C2*%
X122040000Y-92062500D03*
X122040000Y-88937500D03*
%TD*%
%TO.C,C1*%
X119540000Y-92062500D03*
X119540000Y-88937500D03*
%TD*%
M02*
